<svg xmlns="http://www.w3.org/2000/svg" xmlns:xlink="http://www.w3.org/1999/xlink" viewBox="0 0 715.26 735.94"><defs><style>.cls-1{fill:none;}.cls-2{isolation:isolate;}.cls-3{fill:#474545;}.cls-4{fill:url(#linear-gradient);}.cls-5{fill:#252525;}.cls-6{fill:#5f5e5e;}.cls-7{fill:#823f1c;}.cls-8{fill:url(#linear-gradient-2);}.cls-9{fill:url(#linear-gradient-3);}.cls-10{fill:url(#linear-gradient-4);}.cls-11{fill:url(#linear-gradient-5);}.cls-12{fill:#f0e1d2;}.cls-12,.cls-16,.cls-48,.cls-70,.cls-79,.cls-80{mix-blend-mode:multiply;}.cls-13{fill:url(#linear-gradient-6);}.cls-14{fill:url(#linear-gradient-7);}.cls-15{fill:url(#linear-gradient-8);}.cls-17{fill:#e9e8e9;}.cls-18{fill:#e0e0df;}.cls-19{fill:#ececec;}.cls-20{fill:url(#linear-gradient-9);}.cls-21{fill:url(#linear-gradient-10);}.cls-22{fill:url(#linear-gradient-11);}.cls-23{fill:#ceecf7;}.cls-24{fill:url(#linear-gradient-12);}.cls-25{fill:url(#linear-gradient-13);}.cls-26{fill:url(#linear-gradient-14);}.cls-27{fill:url(#linear-gradient-15);}.cls-28{fill:url(#linear-gradient-16);}.cls-29{fill:url(#linear-gradient-17);}.cls-30{fill:url(#linear-gradient-18);}.cls-31{fill:url(#linear-gradient-19);}.cls-32{fill:url(#linear-gradient-20);}.cls-33{fill:url(#linear-gradient-21);}.cls-34{fill:#95c1cc;}.cls-35{fill:#9fced9;}.cls-36{fill:url(#linear-gradient-22);}.cls-37{fill:#9fdbec;}.cls-38{fill:#91cdca;}.cls-39{fill:url(#linear-gradient-23);}.cls-40{fill:#00669c;}.cls-41{fill:#49494a;}.cls-42{fill:url(#linear-gradient-24);}.cls-43{opacity:0.37;}.cls-44{fill:url(#linear-gradient-25);}.cls-45{fill:url(#linear-gradient-26);}.cls-46{fill:#26150e;mix-blend-mode:screen;}.cls-47{fill:#4e2819;}.cls-48{fill:#c6c5c5;}.cls-49{fill:url(#linear-gradient-27);}.cls-50{opacity:0.7;}.cls-51{fill:#4f4f4f;}.cls-52{fill:#919090;}.cls-53{fill:url(#linear-gradient-28);}.cls-54{fill:url(#linear-gradient-29);}.cls-55{fill:url(#linear-gradient-30);}.cls-56{fill:#fbcaab;}.cls-57{fill:#e6ac86;}.cls-58{fill:#d8966c;}.cls-59{fill:#be7c50;}.cls-60{fill:#3f3f3f;}.cls-61{opacity:0.52;}.cls-62{fill:url(#linear-gradient-31);}.cls-63{fill:url(#linear-gradient-32);}.cls-64{fill:#e4e4e3;}.cls-65{fill:url(#linear-gradient-33);}.cls-66{fill:url(#linear-gradient-34);}.cls-67{fill:#303030;}.cls-68{fill:#9b9a9a;}.cls-69{fill:#676767;}.cls-70{fill:#e7e7e7;}.cls-71{fill:#888;}.cls-72{fill:url(#linear-gradient-35);}.cls-73{fill:url(#linear-gradient-36);}.cls-74{fill:url(#linear-gradient-37);}.cls-75{fill:url(#linear-gradient-38);}.cls-76{fill:#4d4c4c;}.cls-77{fill:url(#linear-gradient-39);}.cls-78{fill:url(#linear-gradient-40);}.cls-79{fill:url(#linear-gradient-41);}.cls-80{fill:url(#linear-gradient-42);}.cls-81{fill:#927866;}.cls-82{opacity:0.35;}.cls-83{fill:#a25629;}.cls-84{fill:url(#linear-gradient-43);}.cls-85{fill:url(#linear-gradient-44);}.cls-86{fill:#673519;}.cls-87{fill:#844621;}.cls-88{fill:#6d3b1b;}.cls-89{fill:#9c5429;}.cls-90{fill:#1e2627;}.cls-91{fill:url(#linear-gradient-45);}.cls-92{fill:url(#linear-gradient-46);}.cls-93{fill:#92cddc;}.cls-94{fill:url(#linear-gradient-47);}.cls-95{fill:url(#linear-gradient-48);}.cls-96{fill:url(#linear-gradient-49);}.cls-97{fill:url(#linear-gradient-50);}.cls-98{fill:url(#linear-gradient-51);}.cls-99{fill:url(#linear-gradient-52);}.cls-100{fill:url(#radial-gradient);}.cls-101{fill:url(#radial-gradient-2);}.cls-102{fill:url(#linear-gradient-53);}.cls-103{fill:url(#linear-gradient-54);}.cls-104{fill:#f6bca9;}.cls-105{fill:#eba58e;}.cls-106{fill:#74584d;opacity:0.32;}.cls-107{fill:url(#linear-gradient-55);}.cls-108{fill:url(#linear-gradient-56);}.cls-109{fill:url(#linear-gradient-57);}.cls-110{fill:#d2572d;}.cls-111{fill:#f7997b;}.cls-112,.cls-115,.cls-116,.cls-124{fill:#fff;}.cls-113{clip-path:url(#clip-path);}.cls-114{fill:url(#linear-gradient-58);}.cls-115,.cls-125{opacity:0.2;}.cls-116{opacity:0.4;}.cls-117{clip-path:url(#clip-path-2);}.cls-118{fill:url(#linear-gradient-59);}.cls-119{fill:url(#linear-gradient-61);}.cls-120{fill:url(#linear-gradient-62);}.cls-121{fill:url(#linear-gradient-63);}.cls-122{fill:#4b3214;}.cls-123{fill:url(#linear-gradient-64);}.cls-124{opacity:0.5;}.cls-125{fill:#010101;}.cls-126{fill:#151515;}.cls-127{fill:#383938;}</style><linearGradient id="linear-gradient" x1="7462" y1="559.44" x2="7462" y2="461.82" gradientTransform="translate(-7176.17)" gradientUnits="userSpaceOnUse"><stop offset="0" stop-color="#454343"/><stop offset="1" stop-color="#2d2d2c"/></linearGradient><linearGradient id="linear-gradient-2" x1="342.99" y1="652.51" x2="387.63" y2="652.51" gradientUnits="userSpaceOnUse"><stop offset="0" stop-color="#525252"/><stop offset="1" stop-color="#353737"/></linearGradient><linearGradient id="linear-gradient-3" x1="299.73" y1="653.22" x2="329.76" y2="653.22" xlink:href="#linear-gradient-2"/><linearGradient id="linear-gradient-4" x1="324.5" y1="441.36" x2="280.7" y2="415.81" gradientUnits="userSpaceOnUse"><stop offset="0" stop-color="#303030"/><stop offset="0.1" stop-color="#2c2c2c"/><stop offset="0.57" stop-color="#1f1f1f"/><stop offset="1" stop-color="#1b1b1b"/></linearGradient><linearGradient id="linear-gradient-5" x1="295.28" y1="482.56" x2="254.15" y2="458.57" gradientUnits="userSpaceOnUse"><stop offset="0" stop-color="#303030"/><stop offset="1" stop-color="#303030"/></linearGradient><linearGradient id="linear-gradient-6" x1="249.44" y1="419.01" x2="248.48" y2="389.99" xlink:href="#linear-gradient-5"/><linearGradient id="linear-gradient-7" x1="279.34" y1="420.41" x2="278.41" y2="392.27" xlink:href="#linear-gradient-5"/><linearGradient id="linear-gradient-8" x1="271.83" y1="218.15" x2="260.02" y2="349.29" gradientUnits="userSpaceOnUse"><stop offset="0" stop-color="#333"/><stop offset="1" stop-color="#252525"/></linearGradient><linearGradient id="linear-gradient-9" x1="314.44" y1="270.63" x2="294.93" y2="326.13" gradientUnits="userSpaceOnUse"><stop offset="0" stop-color="#333"/><stop offset="1" stop-color="#212121"/></linearGradient><linearGradient id="linear-gradient-10" x1="7527.79" y1="328.53" x2="7520.28" y2="360.35" gradientTransform="translate(-7176.17)" gradientUnits="userSpaceOnUse"><stop offset="0" stop-color="#f6bca9"/><stop offset="0.61" stop-color="#ea9579"/><stop offset="1" stop-color="#e47f5f"/></linearGradient><linearGradient id="linear-gradient-11" x1="366.66" y1="291.2" x2="348.46" y2="342.96" xlink:href="#linear-gradient-9"/><linearGradient id="linear-gradient-12" x1="7565.11" y1="353.22" x2="7563.05" y2="365.14" gradientTransform="translate(-7176.17)" gradientUnits="userSpaceOnUse"><stop offset="0" stop-color="#f6bca9"/><stop offset="1" stop-color="#f09b7f"/></linearGradient><linearGradient id="linear-gradient-13" x1="402.66" y1="356.92" x2="404.34" y2="366.78" gradientTransform="matrix(1, 0, 0, 1, 0, 0)" xlink:href="#linear-gradient-10"/><linearGradient id="linear-gradient-14" x1="7575.13" y1="355" x2="7576.69" y2="364.16" xlink:href="#linear-gradient-10"/><linearGradient id="linear-gradient-15" x1="7331.36" y1="-979.4" x2="7333.22" y2="-966.14" gradientTransform="translate(-6744.3 -1532.05) rotate(22.38)" xlink:href="#linear-gradient-10"/><linearGradient id="linear-gradient-16" x1="7454.18" y1="-597.32" x2="7456.02" y2="-584.2" gradientTransform="matrix(0.96, 0.27, -0.27, 0.96, -6933.89, -1099.61)" xlink:href="#linear-gradient-10"/><linearGradient id="linear-gradient-17" x1="7568.63" y1="353" x2="7570.62" y2="364.67" xlink:href="#linear-gradient-10"/><linearGradient id="linear-gradient-18" x1="7571.13" y1="355.69" x2="7572.98" y2="368.8" xlink:href="#linear-gradient-10"/><linearGradient id="linear-gradient-19" x1="7562.12" y1="353.43" x2="7561.32" y2="371.29" xlink:href="#linear-gradient-10"/><linearGradient id="linear-gradient-20" x1="7563.49" y1="356.76" x2="7565.33" y2="369.88" xlink:href="#linear-gradient-10"/><linearGradient id="linear-gradient-21" x1="7549.54" y1="350.53" x2="7547.48" y2="362.45" xlink:href="#linear-gradient-12"/><linearGradient id="linear-gradient-22" x1="269.42" y1="266.26" x2="230.69" y2="341.12" xlink:href="#linear-gradient-8"/><linearGradient id="linear-gradient-23" x1="7563.62" y1="222.75" x2="7573.16" y2="175.08" gradientTransform="translate(-7316.17)" gradientUnits="userSpaceOnUse"><stop offset="0" stop-color="#f6bca9"/><stop offset="0.19" stop-color="#f1ad96"/><stop offset="0.47" stop-color="#eb9c81"/><stop offset="0.74" stop-color="#e89174"/><stop offset="1" stop-color="#e78e70"/></linearGradient><linearGradient id="linear-gradient-24" x1="414.77" y1="402.15" x2="88.5" y2="75.88" gradientUnits="userSpaceOnUse"><stop offset="0" stop-color="#fff"/><stop offset="0.02" stop-color="#f6f6fa" stop-opacity="0.96"/><stop offset="0.14" stop-color="#c8c8e1" stop-opacity="0.74"/><stop offset="0.25" stop-color="#9fa0cb" stop-opacity="0.54"/><stop offset="0.37" stop-color="#7c7db8" stop-opacity="0.37"/><stop offset="0.49" stop-color="#6061a9" stop-opacity="0.24"/><stop offset="0.61" stop-color="#4a4c9d" stop-opacity="0.13"/><stop offset="0.74" stop-color="#3a3c95" stop-opacity="0.06"/><stop offset="0.86" stop-color="#313390" stop-opacity="0.01"/><stop offset="1" stop-color="#2e308e" stop-opacity="0"/></linearGradient><linearGradient id="linear-gradient-25" x1="74.57" y1="336.86" x2="110.58" y2="336.86" gradientTransform="translate(13.93)" gradientUnits="userSpaceOnUse"><stop offset="0" stop-color="#ffdcb2"/><stop offset="1" stop-color="#bd8d7b"/></linearGradient><linearGradient id="linear-gradient-26" x1="71.01" y1="298.41" x2="118.78" y2="298.41" gradientTransform="translate(13.93)" gradientUnits="userSpaceOnUse"><stop offset="0" stop-color="#83472d"/><stop offset="1" stop-color="#733e26"/></linearGradient><linearGradient id="linear-gradient-27" x1="75.43" y1="338.59" x2="114.69" y2="338.59" gradientTransform="translate(13.93)" gradientUnits="userSpaceOnUse"><stop offset="0" stop-color="#7f4223"/><stop offset="1" stop-color="#67351b"/></linearGradient><linearGradient id="linear-gradient-28" x1="452.9" y1="464.04" x2="452.9" y2="381.78" gradientTransform="matrix(-1, 0, 0, 1, 1022.06, 0)" gradientUnits="userSpaceOnUse"><stop offset="0" stop-color="#3f3f3f"/><stop offset="1" stop-color="#272727"/></linearGradient><linearGradient id="linear-gradient-29" x1="872.41" y1="464.04" x2="872.41" y2="381.78" xlink:href="#linear-gradient-28"/><linearGradient id="linear-gradient-30" x1="663.67" y1="404.95" x2="663.67" y2="377.72" xlink:href="#linear-gradient-28"/><linearGradient id="linear-gradient-31" x1="415.79" y1="319.97" x2="413.5" y2="288.89" gradientTransform="matrix(-1, 0, 0, 1, 1022.06, 0)" gradientUnits="userSpaceOnUse"><stop offset="0" stop-color="#67883a"/><stop offset="0.14" stop-color="#748d39"/><stop offset="0.44" stop-color="#899538"/><stop offset="0.73" stop-color="#969937"/><stop offset="1" stop-color="#9a9b37"/></linearGradient><linearGradient id="linear-gradient-32" x1="420.08" y1="321.81" x2="417.57" y2="287.81" gradientTransform="matrix(-1, 0, 0, 1, 1022.06, 0)" gradientUnits="userSpaceOnUse"><stop offset="0" stop-color="#6bab43"/><stop offset="0.21" stop-color="#91ba3a"/><stop offset="0.41" stop-color="#afc634"/><stop offset="0.62" stop-color="#c4cf2f"/><stop offset="0.81" stop-color="#d1d42c"/><stop offset="1" stop-color="#d5d62b"/></linearGradient><linearGradient id="linear-gradient-33" x1="414.42" y1="335.22" x2="416.33" y2="381.75" gradientTransform="matrix(-1, 0, 0, 1, 1022.06, 0)" gradientUnits="userSpaceOnUse"><stop offset="0" stop-color="#4d4c4c"/><stop offset="0.51" stop-color="#585959"/><stop offset="1" stop-color="#5c5d5d"/></linearGradient><linearGradient id="linear-gradient-34" x1="460.68" y1="287.19" x2="411.75" y2="393.99" gradientTransform="matrix(-1, 0, 0, 1, 1022.06, 0)" gradientUnits="userSpaceOnUse"><stop offset="0" stop-color="#4d4c4c"/><stop offset="0.2" stop-color="#606060"/><stop offset="0.47" stop-color="#757575"/><stop offset="0.75" stop-color="#828282"/><stop offset="1" stop-color="#868686"/></linearGradient><linearGradient id="linear-gradient-35" x1="3355.96" y1="290.17" x2="3351.27" y2="383.9" gradientTransform="translate(-2881.04)" gradientUnits="userSpaceOnUse"><stop offset="0" stop-color="#d29e5b"/><stop offset="0.5" stop-color="#fec77c"/><stop offset="1" stop-color="#d29e5b"/></linearGradient><linearGradient id="linear-gradient-36" x1="3314.87" y1="361.72" x2="3314.31" y2="372.87" gradientTransform="translate(-2881.04)" gradientUnits="userSpaceOnUse"><stop offset="0" stop-color="#e7b26c"/><stop offset="1" stop-color="#fec77c"/></linearGradient><linearGradient id="linear-gradient-37" x1="3356.4" y1="290.22" x2="3351.72" y2="383.95" gradientTransform="translate(-2881.04)" gradientUnits="userSpaceOnUse"><stop offset="0" stop-color="#cb9a5c"/><stop offset="1" stop-color="#fdc276"/></linearGradient><linearGradient id="linear-gradient-38" x1="3250.43" y1="363.45" x2="3250.16" y2="368.77" gradientTransform="translate(-2881.04)" gradientUnits="userSpaceOnUse"><stop offset="0" stop-color="#d3a261"/><stop offset="1" stop-color="#fec77c"/></linearGradient><linearGradient id="linear-gradient-39" x1="3266.56" y1="364.1" x2="3268.01" y2="366.05" gradientTransform="translate(-2881.04)" gradientUnits="userSpaceOnUse"><stop offset="0" stop-color="#6e6e6e"/><stop offset="1" stop-color="#333"/></linearGradient><linearGradient id="linear-gradient-40" x1="3261.33" y1="364.1" x2="3262.77" y2="366.05" xlink:href="#linear-gradient-39"/><linearGradient id="linear-gradient-41" x1="3290.48" y1="360.81" x2="3289.02" y2="366.79" gradientTransform="translate(-2881.04)" gradientUnits="userSpaceOnUse"><stop offset="0" stop-color="#b0b0af"/><stop offset="1" stop-color="#fff"/></linearGradient><linearGradient id="linear-gradient-42" x1="3391.32" y1="362.02" x2="3393.27" y2="366.74" gradientTransform="translate(-2881.04)" gradientUnits="userSpaceOnUse"><stop offset="0" stop-color="#b0b0af"/><stop offset="0.6" stop-color="#e0e0df"/><stop offset="1" stop-color="#fff"/></linearGradient><linearGradient id="linear-gradient-43" x1="7551.41" y1="720.37" x2="7557.26" y2="692.84" gradientTransform="matrix(-1, 0, 0, 1, 7653.94, 0)" gradientUnits="userSpaceOnUse"><stop offset="0" stop-color="#844621"/><stop offset="1" stop-color="#79401d"/></linearGradient><linearGradient id="linear-gradient-44" x1="7556.5" y1="626.02" x2="7555.58" y2="616.99" gradientTransform="matrix(-1, 0, 0, 1, 7653.94, 0)" gradientUnits="userSpaceOnUse"><stop offset="0" stop-color="#904d24"/><stop offset="1" stop-color="#9d5529"/></linearGradient><linearGradient id="linear-gradient-45" x1="208.07" y1="274.67" x2="303.51" y2="382.84" gradientUnits="userSpaceOnUse"><stop offset="0" stop-color="#333"/><stop offset="1" stop-color="#444"/></linearGradient><linearGradient id="linear-gradient-46" x1="7520.22" y1="352.45" x2="7521.16" y2="373.31" gradientTransform="translate(-7176.17)" gradientUnits="userSpaceOnUse"><stop offset="0" stop-color="#f6bca9"/><stop offset="0.14" stop-color="#f1b19c"/><stop offset="0.44" stop-color="#e79f87"/><stop offset="0.73" stop-color="#e2947a"/><stop offset="1" stop-color="#e09076"/></linearGradient><linearGradient id="linear-gradient-47" x1="7459.73" y1="350.25" x2="7447.75" y2="418.11" gradientTransform="translate(-7176.17)" gradientUnits="userSpaceOnUse"><stop offset="0" stop-color="#f6bca9"/><stop offset="0.34" stop-color="#f6ac94"/><stop offset="0.68" stop-color="#f6a287"/><stop offset="1" stop-color="#f69f83"/></linearGradient><linearGradient id="linear-gradient-48" x1="7519.21" y1="356.81" x2="7520.58" y2="374.89" xlink:href="#linear-gradient-47"/><linearGradient id="linear-gradient-49" x1="210.13" y1="272.85" x2="305.57" y2="381.02" xlink:href="#linear-gradient-45"/><linearGradient id="linear-gradient-50" x1="7540.56" y1="351.13" x2="7537.75" y2="367.07" gradientTransform="translate(-7176.17)" gradientUnits="userSpaceOnUse"><stop offset="0" stop-color="#f6bca9"/><stop offset="0.06" stop-color="#f5b8a4"/><stop offset="0.38" stop-color="#f1a88f"/><stop offset="0.7" stop-color="#ef9d82"/><stop offset="1" stop-color="#ee9a7e"/></linearGradient><linearGradient id="linear-gradient-51" x1="7197.74" y1="1747.04" x2="7194.75" y2="1763.96" gradientTransform="matrix(0.91, -0.43, 0.45, 0.96, -6937.54, 1730.74)" xlink:href="#linear-gradient-47"/><linearGradient id="linear-gradient-52" x1="7535.87" y1="350.99" x2="7533.46" y2="364.64" xlink:href="#linear-gradient-47"/><radialGradient id="radial-gradient" cx="7383.81" cy="1296" r="11.31" gradientTransform="matrix(0.96, -0.28, 0.29, 1, -7110.21, 1122.45)" gradientUnits="userSpaceOnUse"><stop offset="0" stop-color="#f69f83"/><stop offset="0.32" stop-color="#f6a287"/><stop offset="0.66" stop-color="#f6ac94"/><stop offset="1" stop-color="#f6bca9"/></radialGradient><radialGradient id="radial-gradient-2" cx="7530.49" cy="361.07" r="11.31" gradientTransform="translate(-7176.17)" xlink:href="#radial-gradient"/><linearGradient id="linear-gradient-53" x1="7527.24" y1="356.2" x2="7528.61" y2="374.28" xlink:href="#linear-gradient-47"/><linearGradient id="linear-gradient-54" x1="7531.72" y1="355.86" x2="7533.09" y2="373.94" xlink:href="#linear-gradient-47"/><linearGradient id="linear-gradient-55" x1="206.39" y1="107.63" x2="288.01" y2="107.63" gradientUnits="userSpaceOnUse"><stop offset="0" stop-color="#3c2415"/><stop offset="1" stop-color="#753b0c"/></linearGradient><linearGradient id="linear-gradient-56" x1="285.23" y1="125.16" x2="297.66" y2="125.16" xlink:href="#linear-gradient-55"/><linearGradient id="linear-gradient-57" x1="255.27" y1="124.36" x2="280.88" y2="124.36" xlink:href="#linear-gradient-55"/><clipPath id="clip-path"><path class="cls-1" d="M273.68,135.61s2.37,2.66-.42,10.2c-7-1.73-14-2.86-14-2.86l1.05-4.82Z"/></clipPath><linearGradient id="linear-gradient-58" x1="7441.58" y1="-2659.98" x2="7444.01" y2="-2676.66" gradientTransform="translate(-7629.31 -254.27) rotate(22.59)" gradientUnits="userSpaceOnUse"><stop offset="0" stop-color="#00b5c4"/><stop offset="1" stop-color="#006860"/></linearGradient><clipPath id="clip-path-2"><path class="cls-1" d="M295,139.82c1,4.79-.7,6.75-.7,6.75l-7.69.59L285,137.6S290.88,137.12,295,139.82Z"/></clipPath><linearGradient id="linear-gradient-59" x1="6195.62" y1="-2842.15" x2="6197.8" y2="-2856.81" gradientTransform="matrix(1.12, 0.5, -0.36, 0.94, -7652.06, -255.31)" xlink:href="#linear-gradient-58"/><linearGradient id="linear-gradient-61" x1="207.97" y1="120.96" x2="246.13" y2="120.96" xlink:href="#linear-gradient-55"/><linearGradient id="linear-gradient-62" x1="214.51" y1="92.3" x2="251.74" y2="92.3" xlink:href="#linear-gradient-55"/><linearGradient id="linear-gradient-63" x1="239.45" y1="77" x2="276.72" y2="77" xlink:href="#linear-gradient-55"/><linearGradient id="linear-gradient-64" x1="7672.1" y1="-762.37" x2="7684.54" y2="-748.84" gradientTransform="translate(-7426.47 -92.16) rotate(7.48)" gradientUnits="userSpaceOnUse"><stop offset="0" stop-color="#f6bca9"/><stop offset="0.21" stop-color="#f6ac93"/><stop offset="0.48" stop-color="#f69c7e"/><stop offset="0.75" stop-color="#f69271"/><stop offset="1" stop-color="#f68f6d"/></linearGradient></defs><title>Asset 2</title><g class="cls-2"><g id="Layer_2" data-name="Layer 2"><g id="Layer_1-2" data-name="Layer 1"><polygon class="cls-3" points="293.3 708.47 278.36 708.47 280.32 634.64 291.17 634.43 293.3 708.47"/><polygon class="cls-4" points="296.32 650.93 275.51 653.14 273.56 458.78 298.1 458.78 296.32 650.93"/><polygon class="cls-5" points="280.09 654.75 291.43 655.81 291.38 651.46 280.11 652.65 280.09 654.75"/><polygon class="cls-6" points="342.75 702.59 228.2 704.85 226.69 710.74 342.75 710.74 342.75 702.59"/><polygon class="cls-7" points="372.06 468.16 199.46 466.08 200.47 436.64 239.19 444.76 367.74 442.9 372.06 468.16"/><polygon class="cls-6" points="368.83 620.43 207.46 619.68 208.8 613.88 366.7 613.88 368.83 620.43"/><path class="cls-8" d="M354.4,619.78S348,625.59,343,626.61c.8,4.6,6.28,15.52,14.81,26.72a312.93,312.93,0,0,0,28.44,31.91c2.13-7.2,1.18-9.09,1.18-9.09a210,210,0,0,1-15.12-19.54c-6-9.14-10.2-33.09-10.2-33.09Z"/><path class="cls-9" d="M301.14,621.9c7.82-2.94,12.39,7.32,13.15,12.18s15.47,51,15.47,51-16.62-.5-21.36-6.17S296.71,623.56,301.14,621.9Z"/><path class="cls-10" d="M276,396.17s-39.26,12.74-15.6,57c15,6.7,93.32,14,106.08,15.35,10.47,1.08,23.53.15,28.93-7.24,7.25-9.93,5.46-22.95,4.55-25.1C397,435.13,333.21,412.61,276,396.17Z"/><path class="cls-11" d="M380.24,443.18a39.88,39.88,0,0,0-13.72,25.36s-39.93,23-25.15,52.23S354,623.21,354,623.21s2.67,6,7-.23c-.55-58.91,31.43-116.6,38-153.36a119.62,119.62,0,0,0,1.42-33.29C398.29,435.35,392.06,433.37,380.24,443.18Z"/><path class="cls-12" d="M373.6,456.77l2.66-3.64L266.85,422.55l-1.13,3.61,104.38,29-4,5.4h4.32l-3.34,2,5.81,7.9c-4.37,4.42-27.55,19.46-28.61,35.52-.41,6.2,3.95,15.26,7.06,26.74,5.65,20.82,5.43,51.37,2.31,87.79.21,1.72.32,2.67.32,2.67a12,12,0,0,0,3.08,1.49c4.13-38.77,3.86-71.13-2.06-93-3-11.13-7.3-19.92-6.93-25.49,1.11-17,28.43-34,28.62-34.2l1.21-1.15-5.32-7.24,11.29-6.9Z"/><path class="cls-13" d="M219.27,392.8s-19.06,31.72-15.6,58.9c15.75,7,59.94,14.74,63.54,15.35,25.92,4.39,33.66-6.18,28.88-33.24C292.77,431.62,255.28,406.68,219.27,392.8Z"/><path class="cls-14" d="M303.89,525.45c.88-35.81-6.07-79.43-6.73-83.83-1.31-8.7-20.75-10.41-30,25.43-.53,2.09-7.89,20.62-7.09,36.71s36.55,118.66,42.76,123.39l3.68,2.1,1.58-3.52S305.13,553.06,303.89,525.45Z"/><path class="cls-12" d="M272.54,500.76,278.63,465l-4.2-2.95,6.09-4.66L277.81,456c-.31-.15-31-15.43-59.39-20,.89-17,8-32.41,8.1-32.57l-3.43-1.61c-.32.7-8,17.24-8.52,35.73l0,1.68,1.66.25c23.34,3.44,48.9,14.74,57.18,18.62l-5.32,4.07,5.41,3.82-4.41,33.21s-4.65,22.55,20.1,97.27c6.27,16.58,11.65,29.11,13.73,30.69l.49.28C271.24,530.72,271.78,504.07,272.54,500.76Z"/><path class="cls-15" d="M221.91,384.17c-2.08,8.78-15.65,32.3-18.66,38.38,6.76,9.08,54.71,8.57,69.3-15.92,16.27-8.75,32.6-1.19,32.6-1.46,0-2.66-1.58-3.2-2.14-21C302.33,362.43,227.64,360.05,221.91,384.17Z"/><g class="cls-16"><polygon class="cls-17" points="82.35 731.39 97.67 719.22 613.74 719.22 651.34 731.39 82.35 731.39"/><polygon class="cls-18" points="715.26 733.63 678.26 728.22 269.1 728.22 274.45 735.94 715.26 733.63"/><polygon class="cls-19" points="285.76 735.88 274.45 726.9 37.98 726.9 18.25 733.91 285.76 735.88"/></g><path class="cls-20" d="M284.12,220c4.63,3.48,14.49,10.28,22.62,17.33,7.73,16.25,28.88,62.08,36.52,80.68,5.82,14.19-15.82,53.22-36.52,38.63C287.84,343.34,273,211.68,284.12,220Z"/><path class="cls-21" d="M309.65,358.35s-12.42-41.53,30.28-44.74c22.83,4.7,41.32,27.87,47.17,35.48,1,1.33-2.14,6.61-2.14,6.61S378.43,375,309.65,358.35Z"/><path class="cls-22" d="M309.65,358.35s-14.51-44.25,30.28-45.61c20.95,4.31,40.59,26.91,48.21,36.63,2.14,2.73-2,11.13-16.08,15.14S344.94,369.35,309.65,358.35Z"/><ellipse class="cls-23" cx="381.14" cy="357.37" rx="11.38" ry="7.19"/><path class="cls-24" d="M376.66,353.86s-1.44,8.86.83,9.4,17.11-1,21.93-1.05c1.68-6,.53-8.89.53-8.89s-6.28-2.67-17.38.54C380.71,354.4,378.81,353.3,376.66,353.86Z"/><path class="cls-25" d="M407.89,356.93c1,2.39-1.36,3.89-3.44,3.68s-6-.76-6.68-2.42-1.06-4.2.77-4.83S406.92,354.55,407.89,356.93Z"/><path class="cls-26" d="M398.38,351.11s-3.25,1.46-3.91,3.9.39,3.8,2.49,3.9,6.85-.62,7-2.65S403.53,350.89,398.38,351.11Z"/><path class="cls-27" d="M404.41,354.26c.09-.11,4.4,1.19,4.4,1.19a12.54,12.54,0,0,1-2.34,9.61c-3.08-.61-4-1.78-4-1.78S403.42,355.59,404.41,354.26Z"/><path class="cls-28" d="M398.38,351.11a40.77,40.77,0,0,1,5.34.52,14.27,14.27,0,0,1-1.38,11.16c-3.57-.29-4.81-1.49-4.81-1.49S397.45,352.75,398.38,351.11Z"/><path class="cls-29" d="M390.45,348.4a11.71,11.71,0,0,0-1.38,2.25,12.18,12.18,0,0,0-.8,2.13c-.72,2.64.68,5.15,3,5.26s5.58-2.78,5.73-5S396,346.51,390.45,348.4Z"/><path class="cls-30" d="M390.45,348.4c.06-.17,5.77-1.15,5.77-1.15A17,17,0,0,1,398,359.84c-3.74.78-5.35-.14-5.35-.14S390,350.47,390.45,348.4Z"/><path class="cls-31" d="M389.15,352.69a8.51,8.51,0,0,0-4.85-.34c-1,.18-3.5,3.18-2.27,5.64s4.37,2.09,5.81,1.22S391,356.54,389.15,352.69Z"/><path class="cls-32" d="M383.38,353.78c.06-.16,5.77-1.09,5.77-1.09A15.18,15.18,0,0,1,391,364.53c-3.74.74-5.35-.13-5.35-.13S382.89,355.73,383.38,353.78Z"/><path class="cls-33" d="M376.66,353.86,367.22,358l-3.54,6.81s6.37,3.35,8.48-1.4a29.43,29.43,0,0,1,5.33-.17S381.53,358.3,376.66,353.86Z"/><polygon class="cls-34" points="272.68 222.67 264.28 195.88 265.11 195.47 274.12 222.96 272.68 222.67"/><path class="cls-34" d="M265.11,195.47s-25.85-19.15-41.46-4.19c-1.29,10.84-1.68,14.14-1.68,14.14s9.13-12.68,36.35-2.41C263,201.47,265.11,195.47,265.11,195.47Z"/><path class="cls-35" d="M223.79,190.8s6.52-7.84,20.5-5.7c14.59,2.24,20.82,10.37,20.82,10.37l-.83.41s-8.74-8-20.2-9.49-18.43,4.41-18.43,4.41Z"/><path class="cls-36" d="M297,385.71c1.74-36.45-.41-89.92-.41-89.92s5.45-4.4,10.15-13.8c-4.12-22.91-22.62-62-22.62-62s-33.49-21.74-45.53-22-42.4,25.5-42.59,26.73c-11.46,72.55,25.85,102.22,25.85,102.22s12.63,28.19.54,67.79c-2.56,8.66,17.11,16.28,36.87,16.18,18.8-.1,37.68-7.5,37.53-15.46C296.73,392.25,296.83,389.14,297,385.71Z"/><polygon class="cls-37" points="240.09 231.92 282.36 291.32 278.03 231.06 240.09 231.92"/><polygon class="cls-38" points="274.12 222.96 265.11 195.47 258.32 203.01 274.88 237.14 274.12 222.96"/><path class="cls-39" d="M236.33,164,225,203.26s20.73,32.47,41.24,32.18S251.45,164,251.45,164Z"/><path class="cls-35" d="M225.65,190.8c.64,2.09,21.59,23.35,44.86,31.6V223s-30.75-10.13-36.37-15.1-10.35-17.14-10.35-17.14Z"/><path class="cls-40" d="M270.51,223l3.61-.08,1.35,15.45-3.37,7.53L278,257.66l2,28.24s-15.45-23.29-15.7-23.71,3.51-15.45,3.51-15.45-6.33-7.8-6.1-8S270.51,223,270.51,223Z"/><polygon class="cls-23" points="274.12 222.96 275.47 238.41 280.31 235.45 272.21 216.3 271.51 215.31 274.12 222.96"/><path class="cls-23" d="M223.79,190.8S243,213.24,270.51,223c-1.9,14.55-15.93,20.23-15.93,20.23s-21.23-7.81-34.92-37.78C221.47,198.7,223.79,190.8,223.79,190.8Z"/><path class="cls-41" d="M221.73,198l-11.82,15,29.32,46.95s15-2.39,14.54-2.6-6.62,11.92-6.62,11.92l37.66,44.4,6.55-45.49-11.05-8,7.91-6L274.88,214.3l-6.69-9.42L275.91,228l4,57.88Z"/><path class="cls-42" d="M422.46,367.55l-299.84-.66C1.66,356,12.59,15.26,226.36.12,322.92-6.71,546.89,270,546.89,270"/><g class="cls-43"><polygon class="cls-44" points="122.62 366.89 96.47 366.89 88.5 306.84 128.62 306.84 122.62 366.89"/><polygon class="cls-45" points="132.71 309.59 84.94 308.22 88.5 288.94 101.49 287.24 107.63 298.33 128.62 301.18 132.71 309.59"/><polygon class="cls-46" points="97.05 287.9 97.43 308.51 87.89 308.31 91.35 288.57 97.05 287.9"/><polygon class="cls-47" points="107.63 298.33 100.47 297.64 97.79 287.72 101.49 287.24 107.63 298.33"/><path class="cls-46" d="M94.7,288.13c0,.33-2.36,20.3-2.36,20.3l2.69.08,1.39-20.61Z"/><polygon class="cls-48" points="115.28 299.37 115.91 309.11 126.67 309.41 124.01 300.55 115.28 299.37"/><polygon class="cls-49" points="89.36 322.22 128.62 323.74 125.28 354.95 93.53 354.95 89.36 322.22"/></g><g class="cls-50"><polygon class="cls-51" points="559.75 725.93 578.57 725.93 576.1 522.39 562.43 522.16 559.75 725.93"/><polygon class="cls-52" points="489.61 719.37 653.52 721.89 655.21 727.13 489.61 727.13 489.61 719.37"/><polygon class="cls-53" points="555.94 540.54 582.15 543 584.62 379.22 553.7 379.22 555.94 540.54"/><polygon class="cls-5" points="576.39 544.79 562.1 545.97 562.17 541.12 576.36 542.46 576.39 544.79"/><polygon class="cls-51" points="140.24 725.93 159.06 725.93 156.6 522.39 142.93 522.16 140.24 725.93"/><polygon class="cls-52" points="68.75 719.37 225.95 721.89 227.63 727.13 68.75 727.13 68.75 719.37"/><polygon class="cls-54" points="136.43 540.54 162.65 543 165.11 379.22 134.19 379.22 136.43 540.54"/><polygon class="cls-55" points="69.07 396.47 647.71 396.47 647.71 377.87 69.07 379.22 69.07 396.47"/><polygon class="cls-5" points="156.89 544.79 142.59 545.97 142.66 541.12 156.86 542.46 156.89 544.79"/><polygon class="cls-56" points="700.37 366.89 0 366.89 0 391.54 697.35 377.31 700.37 366.89"/><path class="cls-57" d="M123.93,366.89h3.59c-.36,7.85-1.43,16.27-4,22.13l-3.92.08C122.19,384.37,123.49,375.87,123.93,366.89Z"/><path class="cls-57" d="M107.9,389.34c-1.63-5.59-2-13.9-1.71-22.45h3.58c-.3,9.4.11,17.73,1.77,22.38Z"/><path class="cls-57" d="M33.12,372.6c.18-1.91.36-3.82.55-5.71h3.58c-.82,8.56-1.6,16.86-2.22,23.94l-3.6.07C31.89,385.72,32.45,379.6,33.12,372.6Z"/><path class="cls-57" d="M153.34,366.89h3.6c-.42,2.84-.89,5.94-1.37,9-.78,5-1.47,9.21-2.06,12.48l-3.64.07C150.84,383.1,152.09,375.25,153.34,366.89Z"/><polygon class="cls-57" points="14.62 366.89 18.19 366.89 18.19 391.17 14.62 391.24 14.62 366.89"/><path class="cls-57" d="M74.69,366.89h3.65c.39,1.74.77,3.48,1.16,5.23,1.48,6.73,2.76,12.65,3.84,17.72l-3.64.08C78.23,383,76.5,375.08,74.69,366.89Z"/><polygon class="cls-57" points="60.42 366.89 64.06 366.89 68.45 390.14 64.82 390.22 60.42 366.89"/><polygon class="cls-58" points="180.85 366.89 178.17 375.14 185.85 376.47 176.37 380.66 173.96 388.05 697.35 377.31 700.37 366.89 180.85 366.89"/><polygon class="cls-59" points="178.17 375.14 179 372.59 306.67 385.33 276.79 385.94 185.12 376.8 185.85 376.47 178.17 375.14"/><path class="cls-59" d="M692.68,368.11l7.49-.51-1.07,3.66-6.18.42c-25.37,1.71-62.16,4.21-96.06,7.69l-36,.74C601.86,374.26,657.94,370.46,692.68,368.11Z"/><path class="cls-59" d="M549,366.89h17.21C546.3,371.65,512.17,377,478,381.81l-31.42.65C481.63,377.86,521.53,372.18,549,366.89Z"/><path class="cls-59" d="M373.88,379.26h-.28c-43.45,0-112.53-7.46-153.5-12.37h31.41c39.4,4.3,88.47,8.77,122.09,8.79h.28c34.92,0,70.3-4.58,95.43-8.79h20C465.7,371.52,419.4,379.26,373.88,379.26Z"/><polygon class="cls-60" points="213.75 721.75 212.41 727.13 227.63 727.13 225.95 721.89 213.75 721.75"/><polygon class="cls-60" points="643.37 721.75 642.03 727.13 657.25 727.13 655.57 721.89 643.37 721.75"/></g><g class="cls-61"><path class="cls-62" d="M637.49,307.62s3.63-33.79,1.17-34-6.92,38.66-6.92,38.66l-13.85-8.11s-4.69-21-6-21.45-4.92,29-4.92,29-15-17.4-17.2-17-2,17.43-1.79,16.09S579.24,291.41,577.9,292s4.47,26,4.47,26l51.34,5Z"/><path class="cls-63" d="M580.36,321.36S562,285.17,564.05,283.83s21.45,30.83,21.45,30.83-3.13-26.81-1.12-26.14,7.82,22.12,7.59,22.79-2.68-40.22,1.57-39.1,13,33.29,13.18,34.18-3.35-23.46-2.46-23.46,8.49,18.32,8.49,18.32.9-22.56,6.48-22.11,10.5,29,10.5,29,.23-37.53,1.79-37.53,3.13,35.52,3.13,35.52,8.71-24.13,10.5-22.57-4.25,27-4.25,27l-3,14.41Z"/><g class="cls-16"><path class="cls-64" d="M612,299.42l.76,1.83a90.31,90.31,0,0,1,2.07-15.66l-.4,36.06-2.68,0Z"/><path class="cls-64" d="M595.06,273.61a31.2,31.2,0,0,1,2.92,5.74l1.71,42.17-2.68,0Z"/><path class="cls-64" d="M628.17,300.38c.57,2.55,1,4.73,1.26,6.13l-3.74,15.23-2.75,0Z"/><path class="cls-64" d="M633.07,280.4c.23,2.68.45,5.68.64,8.65l-4,16.11c0-2.8.09-7.24.19-12Z"/></g><polygon class="cls-65" points="645.89 319.29 637.9 365.43 637.12 366.5 579.24 366.5 570.75 318.01 645.89 319.29"/><polygon class="cls-66" points="570.75 318.01 594.14 318.41 594.67 343.03 593.84 344.82 594.76 346.38 595.33 366.5 579.24 366.5 570.75 318.01"/><polygon class="cls-67" points="606.87 330.3 605.68 332.16 605.23 330.75 606.87 330.3"/><polygon class="cls-67" points="632.64 355.1 631.07 354.2 631.07 355.1 632.64 355.1"/><polygon class="cls-67" points="627.72 328.52 627.43 330.3 628.27 329.98 627.72 328.52"/><polygon class="cls-67" points="613.28 348.12 607.14 348.12 607.14 348.68 613.28 348.12"/><polygon class="cls-51" points="579.97 332.16 580.3 334.43 579.41 334.43 579.97 332.16"/><path class="cls-68" d="M580,332.16s.54,2.46.48,2.46-1-.19-1-.19l.76-.07Z"/><polygon class="cls-68" points="570.75 318.01 593.99 318.47 570.9 318.84 570.75 318.01"/><path class="cls-68" d="M593.84,344.82l2.19-.37-1.27,1.93Z"/><polygon class="cls-69" points="593.84 344.82 594.67 343.03 596.03 344.45 593.84 344.82"/><polygon class="cls-70" points="637.9 365.43 578.97 364.93 579.24 366.5 637.12 366.5 637.9 365.43"/><polygon class="cls-71" points="616.41 318.79 621.47 319.65 640.84 319.2 616.41 318.79"/><polygon class="cls-67" points="637.15 343.87 636.15 341.19 636.15 344.88 637.15 343.87"/><polygon class="cls-67" points="587.14 355.1 586.55 356.22 586.1 355.66 587.14 355.1"/></g><path class="cls-72" d="M395.94,355.74l27.87-80.22c2-4.62,7.59-5.48,12.34-5.48H547.41a4.19,4.19,0,0,1,4,5.32l-23.86,84.89a4.18,4.18,0,0,1-4,3.06h-19l-1.32,3.58H417.39l.57-3.58H401.71C398.83,363.31,394.45,361.94,395.94,355.74Z"/><path class="cls-73" d="M519.64,366.89H348c-2.73,0-2.73-3.58-2.73-3.58H522.19Z"/><path class="cls-74" d="M397.23,357.75l27.46-80.17A11.73,11.73,0,0,1,435.63,270H546.89a4.19,4.19,0,0,1,4,5.32l-23.86,84.89a4.18,4.18,0,0,1-4,3.06h-19l-1.32,3.58H416.87l.57-3.58H401.19A4.19,4.19,0,0,1,397.23,357.75Z"/><path class="cls-75" d="M393.49,363.31,392,366.89H348c-2.92,0-2.73-3.58-2.73-3.58Z"/><polygon class="cls-76" points="473.63 314.1 468.63 325.66 482.74 325.66 486.92 314.1 473.63 314.1"/><rect class="cls-77" x="385.11" y="364.81" width="2.34" height="0.64" rx="0.23" ry="0.23"/><rect class="cls-78" x="379.87" y="364.81" width="2.34" height="0.64" rx="0.23" ry="0.23"/><polygon class="cls-79" points="399.9 363.31 399.05 366.89 416.87 366.89 417.44 363.31 399.9 363.31"/><polygon class="cls-80" points="502.73 366.89 504.05 363.31 520.37 363.31 519.64 366.89 502.73 366.89"/><path class="cls-81" d="M470.72,320.81l-2.1,4.85h14.12l3.37-9.33A51.65,51.65,0,0,1,470.72,320.81Z"/><g class="cls-82"><path class="cls-83" d="M177.52,727s-5.63-100.21-7.4-100.79-9.45,1.15-9.45,1.15l-5,100.1Z"/><polygon class="cls-84" points="155.69 727.47 25.86 726.83 37.42 626.74 151.58 627.03 160.67 626.74 155.69 727.47"/><path class="cls-83" d="M170.12,624.61v1.61l-13.26,2.54s-5,71.82-7,75.44-1.94,5.86-11,5.76c-1.13-17,15.64-83.22,15.64-83.22Z"/><path class="cls-85" d="M170.12,624.61S38.57,609,32.94,611.6C26.23,624,18.69,677.72,18.06,697.33a7.37,7.37,0,0,0,6.94,7.6c22.35,1.3,90.75,5.16,113.84,5a8.06,8.06,0,0,0,8-7.21c4.18-39.08,8.88-75.11,8.88-75.11Z"/><path class="cls-86" d="M170.12,626.22s-3.32,4.53-9.45,1.81Z"/><path class="cls-87" d="M123.59,702.52c1.86,0,3.59,0,5.19,0l.05,3.47-5.22,0Zm-10.43,3.42,0-3.47c1.79,0,3.53,0,5.2,0l0,3.47Zm-10.44-.16.07-3.46,5.2.09,0,3.46Zm31.22-3.44a40.87,40.87,0,0,0,4.94-.38l.62,3.41a44.39,44.39,0,0,1-5.43.43Zm-41.65,3.21.09-3.47,5.21.13-.08,3.46Zm-10.42-.31.11-3.46,5.2.16-.1,3.46Zm-10.43-.37.13-3.46,5.2.19-.12,3.47ZM61,704.42l.16-3.46,5.2.23-.15,3.47Zm-10.43-.53.2-3.47,5.2.29-.18,3.46Zm-10.43-.68.26-3.46,5.18.36-.22,3.46Zm-10.46-1,.41-3.44c1.47.17,3.2.35,5.14.52l-.31,3.46C33,702.61,31.19,702.43,29.69,702.25Zm-7-1.5c-1.13-.71-1.73-2.22-2-5.06l3.46-.33a8.35,8.35,0,0,0,.49,2.5l.5.15-.88,3.35A5.63,5.63,0,0,1,22.74,700.75Zm116.75-1.81c.25-1.35.53-3.07.83-5.09l3.43.51c-.3,2.07-.59,3.82-.85,5.22ZM20.6,690.29c0-1.58.12-3.36.24-5.29l3.46.23c-.12,1.88-.2,3.6-.23,5.13ZM141,688.71c.22-1.63.43-3.36.65-5.16l3.45.42c-.23,1.81-.45,3.55-.66,5.19Zm-119.77-9c.16-1.68.35-3.42.56-5.22l3.44.4c-.21,1.77-.39,3.5-.55,5.15Zm121-1.38c.2-1.69.39-3.42.59-5.18l3.45.38c-.2,1.77-.4,3.5-.59,5.2Zm-119.83-9c.22-1.7.47-3.43.73-5.19l3.43.51c-.26,1.74-.5,3.45-.73,5.14Zm121-1.32c.19-1.72.37-3.46.55-5.19l3.45.36c-.18,1.74-.37,3.47-.55,5.2ZM24,659q.42-2.58.87-5.16l3.42.6c-.3,1.71-.59,3.42-.87,5.11Zm120.55-1.33c.18-1.76.35-3.49.52-5.19l3.45.35c-.17,1.7-.34,3.43-.52,5.19Zm-118.74-9c.33-1.73.67-3.45,1-5.14l3.4.69c-.34,1.68-.68,3.38-1,5.09Zm119.78-1.4c.18-1.8.35-3.54.5-5.19l3.46.33c-.16,1.66-.33,3.4-.51,5.2ZM27.93,638.4c.39-1.74.78-3.45,1.18-5.11l3.37.82q-.58,2.46-1.17,5Zm118.67-1.51.49-5.2,3.45.32-.49,5.2ZM30.41,628.2c.48-1.79,1-3.49,1.45-5.07l3.32,1c-.47,1.53-1,3.2-1.42,5Zm116.87-2.4,6.27-2.39.74,3.38-4.58,1Zm11.57-2.51,5.46.64.14.64-5.08,1.11ZM33.54,618.1a47.22,47.22,0,0,1,2.13-5l3.09,1.59a40.68,40.68,0,0,0-2,4.59Z"/><polygon class="cls-88" points="77.97 681.3 75.2 714.84 87.1 716.57 86.36 681.3 77.97 681.3"/><polygon class="cls-89" points="86.36 681.3 89.26 714.84 87.1 716.57 86.36 681.3"/><path class="cls-88" d="M76.42,615s3.76-16.33,6.79-18.94,29.34-1.87,30.64-1.44,5.78,26.45,5.78,26.45l-8.24-.87s1.74-23.12.73-24.14-26,.29-26.74.87-1.44,19.37-1.44,19.37Z"/></g><path class="cls-90" d="M329.39,341.1s4.74,4.15,2.71,12S321.73,364,321.73,364s-6.69-6.31-3.15-14.63S329.39,341.1,329.39,341.1Z"/><path class="cls-91" d="M210.15,213.11S193,224.85,182.42,242.48c8.63,41.54,45.07,118.36,45.07,118.36l28.9-5.49S272.87,343.1,270,326C267.52,311.64,226.7,228.41,210.15,213.11Z"/><path class="cls-92" d="M334.57,362.77s14-1,14.49-1,7.58,3.41,8.91-.73-6.05-6.05-6.05-6.05-10.2-5.53-13.83-4.94S325.51,362.62,334.57,362.77Z"/><path class="cls-93" d="M333.77,345.32s2.89,1.59,1.88,7.87-8.79,9.27-8.79,9.27-3.91-6.6-1.43-11.3S333.77,345.32,333.77,345.32Z"/><path class="cls-94" d="M228.49,360.58s-8.18-19.07,2.21-33.17c5.66-7.69,15.75-16.38,35.62-13.4,27.12,4.08,76.55,38.24,76.55,38.24S318.67,379,228.49,360.58Z"/><path class="cls-95" d="M336.4,347.72s-8.25,1.35-9.7,3.52-.25,6.71,0,9.94,17.2,1.08,22.69-.94,10.1-9.22,10.1-9.22C360,350.94,337.56,347.52,336.4,347.72Z"/><path class="cls-23" d="M326.86,340.6l6.91,4.72s-10.45,5.59-6.91,17.14c-2.6.63-6.72,1.52-6.72,1.52a16.1,16.1,0,0,1-2.32-14.27C320.35,341.32,326.86,340.6,326.86,340.6Z"/><path class="cls-96" d="M228.49,360.58s-9.05-19.07,1.34-33.17c5.67-7.69,16.62-18.12,36.49-15.13,17.77,2.67,46.33,17.88,63.07,28.82-7.75,1.77-11.87,12.21-7.66,22.88C304.53,368.55,274.54,370,228.49,360.58Z"/><path class="cls-97" d="M359.29,351.75s-2.82,11.38,8.13,10.62c-1.63-7.8-2.49-12.58-2.49-12.58Z"/><path class="cls-98" d="M361,349.86s2.76,12.92,12.92,7.2c-5.31-7.25-8.44-11.74-8.44-11.74Z"/><path class="cls-99" d="M365.44,345.32s-8.3,4.26-9.89,4.47a16.14,16.14,0,0,1-3.47,0l-1,3,9.84,2.44,7-4Z"/><path class="cls-100" d="M360.12,352.48s.56,12,10.75,8.23c-3.76-7.25-5.95-11.71-5.95-11.71Z"/><path class="cls-101" d="M364.92,349s-13.6,1.62-15.06,2.81c-1.2,2.66-1.42,5.94,2,6.39,6,0,14.81-3.77,14.77-5.84C365.42,349.32,364.92,349,364.92,349Z"/><path class="cls-102" d="M357.32,350.84l-12.43,2.67s-2.95,4.92,1.17,7.74a50.35,50.35,0,0,0,12.32-4.9Z"/><path class="cls-103" d="M351.81,352.75s-2.37,11.93,8.33,11.19c-1.59-7.63-2.82-13.1-2.82-13.1Z"/><path class="cls-104" d="M282.67,89s17.67,29.86,13.24,64.08-16.83,54.26-16.83,54.26L255,204.09s3.73-40.88-37.25-42.75a231.15,231.15,0,0,1-.21-25.69l21.8-.08L242.65,99Z"/><path class="cls-105" d="M273.41,147.68s-5.61,2.92-8.26,3.38C271.35,152.46,273.41,147.68,273.41,147.68Z"/><path class="cls-105" d="M293.51,151.64s-4.55-2.08-6.13-3.51C289.52,152.68,293.51,151.64,293.51,151.64Z"/><path class="cls-105" d="M260.24,138.44s-8.25-2.26-7.82-2.26,7.12,3.1,7.12,3.1l-.29,2.2L252,142c.14,0,8.26.78,8.26.78S261.14,140,260.24,138.44Z"/><path class="cls-106" d="M255,204.09l24.13,3.21s10.62-17.16,15.71-46.84c-1,3.9-3.8,7.64-13,6.42-11.45-1.53-38.9-18.11-38.9-18.11l-6.3.16s.2,9.3.39,17.41C257.34,177.66,255,204.09,255,204.09Z"/><path class="cls-107" d="M217.49,135.65s-6.64-6.2-4.39-19c0,0-22.49-26.28,14.89-15.82-33.86-42.37,33.17-33.94,36.43-33.51C276.09,68.84,288,99.57,288,99.57s-11.19-6.76-40.66.26c-.75,11.84-4.47,48.94-4.47,48.94l-6.3.16-1.81-13.35Z"/><path class="cls-108" d="M286,128.46s5.84,4.86,10.36,6.14c1.49-2.13,1.29-5.68,1.29-5.68-5.16-3.29-12.42-13.19-12.42-13.19Z"/><path class="cls-109" d="M258.79,134s15.21-2.42,20.81-7a72.94,72.94,0,0,0,1.28-12.33l-3.62,1-.19,3s-1.87-3-1.89-2.89-8.23,9-19.91,11.28A26.65,26.65,0,0,0,258.79,134Z"/><path class="cls-110" d="M258.19,195.75s10.53-5.25,22.1-5.25v5.25S272.61,193.81,258.19,195.75Z"/><path class="cls-111" d="M233,148.42l-12.78-12.78h-2.73s-.05.78-.1,2.15c3.2,3.19,7.83,7.82,11.7,11.7l-11.57,8.76c0,1,.11,2,.18,3.08.5,0,1,.08,1.46.11l15.29-11.58Z"/><path class="cls-112" d="M273.68,135.61s2.37,2.66-.42,10.2c-7-1.73-14-2.86-14-2.86l1.05-4.82Z"/><path class="cls-112" d="M295,139.82c1,4.79-.7,6.75-.7,6.75l-7.69.59L285,137.6S290.88,137.12,295,139.82Z"/><g class="cls-113"><path class="cls-114" d="M271.58,143.18c-1.8,3.18-4.84,4.83-6.78,3.7s-2.05-4.63-.24-7.81,4.85-4.83,6.79-3.7S273.39,140,271.58,143.18Z"/><path class="cls-115" d="M267.89,142.66c-.48.87-1.3,1.31-1.82,1s-.57-1.28-.09-2.14,1.3-1.31,1.83-1S268.37,141.8,267.89,142.66Z"/><ellipse class="cls-116" cx="270.39" cy="139.82" rx="1.79" ry="1.11" transform="translate(27.87 323.78) rotate(-64.52)"/></g><g class="cls-117"><path class="cls-118" d="M292.54,144.84c-1.81,3.19-4.62,5-6.27,4s-1.51-4.34.31-7.52,4.62-5,6.27-4S294.36,141.65,292.54,144.84Z"/><path class="cls-118" d="M292.54,144.84c-1.81,3.19-4.62,5-6.27,4s-1.51-4.34.31-7.52,4.62-5,6.27-4S294.36,141.65,292.54,144.84Z"/><path class="cls-115" d="M289.26,144.64c-.53.94-1.35,1.46-1.83,1.18s-.45-1.27.09-2.2,1.35-1.46,1.83-1.18S289.79,143.71,289.26,144.64Z"/><path class="cls-116" d="M292.61,142.1c-.47,1-1.25,1.55-1.75,1.3s-.52-1.23-.06-2.2,1.26-1.55,1.76-1.3S293.08,141.14,292.61,142.1Z"/></g><path class="cls-119" d="M210.29,126.06c15.63-7.62,35-5.13,35.18-5.1l.66-4c-.9-.15-22.26-3.65-38.16,2.89Z"/><path class="cls-120" d="M247.85,99.87a1.08,1.08,0,0,1-.08-.27l4-.63c-.48-3.13-9.81-9.78-15.77-11.93-6.76-2.44-20.86-2.31-21.46-2.3l.05,8.16c.14,0,14-4.21,20.06-2C240.42,93,247.13,98.46,247.85,99.87Z"/><path class="cls-121" d="M276.72,96.74c.09-2.32-6-23.44-16.19-32-8.7-7.26-20.58-7.54-21.08-7.48l.48,8.13c.1,0,10.69-2,18,4.13,9,7.52,14.63,25.28,14.73,27.12Z"/><path class="cls-122" d="M260.3,138.13l13.58-1.06s.75.93.74.88,1.26-2.79,1.26-2.79A62.38,62.38,0,0,0,260.3,138.13Z"/><path class="cls-122" d="M285,137.6l.19.82s7.56,0,9.85,1.65c.14,1,.19,1.41.19,1.41l1.06-3A18.6,18.6,0,0,0,285,137.6Z"/><path class="cls-123" d="M282.86,131s4.72,18.4,6.17,32.61l3.65,2.61a19.48,19.48,0,0,1-2.91,5.49c-10-.28-16.8-7.41-17-7.47a14,14,0,0,0,5.27-5.72c2.18-4.34,3.4-24.23,3.4-24.23Z"/><path class="cls-105" d="M261.5,113.3s16-8,26.51-1.17C283.13,106.39,274.77,106.66,261.5,113.3Z"/><path class="cls-105" d="M284.58,128.27s-.88-2.64-4.29,0C283.9,127.3,284.58,128.27,284.58,128.27Z"/><path class="cls-105" d="M273.4,103.67s8.46-1.38,10.2.55C281.11,101.11,277.22,102.15,273.4,103.67Z"/><path class="cls-116" d="M273.26,145.81s-6.77-3.71-14-2.86A137.68,137.68,0,0,0,273.26,145.81Z"/><path class="cls-124" d="M262.59,143.34s3.22-.16,4.29.81A10.86,10.86,0,0,1,262.59,143.34Z"/><path class="cls-116" d="M286.6,147.16a12.2,12.2,0,0,1,7.69-.59C293.18,147,286.6,147.16,286.6,147.16Z"/><path class="cls-124" d="M288.17,147a4.38,4.38,0,0,1,2.83-.27A7.2,7.2,0,0,1,288.17,147Z"/><path class="cls-125" d="M271.41,90.36s12.14,24.55,8.11,32.68l-22.24,7.26S247,113.47,245,103A176.74,176.74,0,0,1,271.41,90.36Z"/><path class="cls-125" d="M293.15,85s9.44,22.29,6.26,31.59c-6.33,2.09-9.46,2.75-9.46,2.75L277.34,95.15l-2.15-6.52S288.22,84.88,293.15,85Z"/><path class="cls-126" d="M245,103l-22.11,13.28s0,3.66.39,3.49,23.44-11.11,23.44-11.11Z"/><path class="cls-115" d="M250.9,118.47a123.21,123.21,0,0,0,6.38,11.83L279.52,123c1.4-2.83,1.11-6.58-.22-11.67C267.87,115.32,250.9,118.47,250.9,118.47Z"/><path class="cls-115" d="M285.28,109.62l4,9.87s3.77-.85,10.1-2.94c1.19-3.49.81-7.9-.39-13.18A133,133,0,0,1,285.28,109.62Z"/><path class="cls-126" d="M256.93,131.26l-.33-.53c-.1-.15-9.2-14.74-12.41-27.57l-.14-.56.49-.31a155.67,155.67,0,0,1,25.55-12.68v0l.87-.33s2-.73,4-1.39l.67-.22v0a70.61,70.61,0,0,1,17.49-3.51l.54,0,.23.49c8.5,18.27,6.75,29.94,6.32,32.09l-.1.48-11.24,3.26-9.8-21.92c-.76-1.62-2.75-5.75-4.28-8.9q-1.21.41-2.4.84c2.11,4.11,10.75,21.92,7.91,32.78l-.11.42Zm-11-27.92c2.91,11.06,10.11,23.32,11.73,26l21.21-6.92c2.36-10.4-6.18-27.85-8-31.39A154.65,154.65,0,0,0,245.9,103.34Zm35-4.74,8.9,19.92,8.94-2.6c.42-2.6,1.51-13.6-6.05-30.12a69.24,69.24,0,0,0-16.32,3.33l2.07,4.29c1.3,2.69,2,4.13,2.3,4.94l.05.07,0,0a1.27,1.27,0,0,1,.06.18Z"/><polygon class="cls-127" points="235.65 108.57 235.75 113.82 239.42 112.08 240.06 105.92 235.65 108.57"/></g></g></g></svg>